<svg xmlns="http://www.w3.org/2000/svg" fill="none" viewBox="0 0 262 40" height="40" width="262">
  <path fill="currentColor" d="M28.1451 13.0741L28.4139 12.8974L29.3103 12.2791C29.3103 12.2675 29.3079 12.256 29.3034 12.2453C29.2989 12.2346 29.2923 12.2248 29.284 12.2166C29.2757 12.2084 29.2658 12.2019 29.255 12.1974C29.2441 12.193 29.2324 12.1907 29.2207 12.1907H24.8286C24.8286 12.1907 24.739 12.2791 24.8286 12.2791L25.6353 12.8091L25.9042 13.1624V18.1977C25.9042 18.3617 25.8381 18.5189 25.7204 18.6349C25.6028 18.7509 25.4432 18.816 25.2768 18.816H21.7811C21.6147 18.816 21.455 18.7509 21.3374 18.6349C21.2197 18.5189 21.1536 18.3617 21.1536 18.1977V9.09891C21.1402 8.97439 21.1719 8.84924 21.2432 8.74559C21.2432 8.72239 21.2479 8.69942 21.2569 8.67798C21.2659 8.65655 21.2791 8.63707 21.2957 8.62067C21.3124 8.60426 21.3322 8.59121 21.3539 8.58233C21.3757 8.57345 21.399 8.56891 21.4225 8.56891L22.3188 7.95054H17.8372L18.6439 8.48059C18.8231 8.56893 18.9128 8.65723 18.9128 8.83391C18.9128 9.01058 19.0024 8.92226 19.0024 9.01059V18.1977C19.0033 18.2869 18.9847 18.3752 18.9477 18.4566C18.9107 18.5381 18.8563 18.6106 18.7881 18.6693C18.72 18.7281 18.6398 18.7716 18.553 18.797C18.4662 18.8223 18.3749 18.8287 18.2853 18.816H14.8792C14.7036 18.8173 14.5336 18.7552 14.4014 18.6412C14.2692 18.5272 14.1841 18.3694 14.1622 18.1977V13.4274C14.1622 13.3391 14.2518 13.1624 14.2518 13.0741L14.5207 12.8974L15.3274 12.2791C15.417 12.2791 15.417 12.1907 15.3274 12.1907H10.9353C10.8457 12.1907 10.8457 12.2791 10.9353 12.2791L11.7421 12.8091L12.0109 13.1624V25.4413L11.7421 25.7063L10.9353 26.2363C10.8457 26.3247 10.8457 26.413 10.9353 26.413H15.3274C15.417 26.413 15.417 26.3247 15.3274 26.2363L14.5207 25.7063L14.2518 25.4413C14.2518 25.3529 14.1622 25.2646 14.1622 25.1763V20.7594C14.1841 20.5877 14.2692 20.4299 14.4014 20.3159C14.5336 20.2019 14.7036 20.1397 14.8792 20.141H18.2853C18.3749 20.1283 18.4662 20.1348 18.553 20.1601C18.6398 20.1854 18.72 20.229 18.7881 20.2877C18.8563 20.3464 18.9107 20.419 18.9477 20.5005C18.9847 20.5819 19.0033 20.6702 19.0024 20.7594V30.7415C19.0024 30.8298 19.0024 30.9182 18.9128 30.9182C18.8231 30.9182 18.8231 31.1832 18.6439 31.2716L17.8372 31.8016C17.8372 31.8899 17.8371 31.8899 17.9268 31.8899H27.2487L27.5176 31.7132V27.8264H27.3383C26.8039 28.8849 25.9881 29.7808 24.9779 30.4186C23.9677 31.0564 22.8009 31.4123 21.6018 31.4482C21.4829 31.4482 21.3689 31.4017 21.2849 31.3188C21.2008 31.236 21.1536 31.1237 21.1536 31.0066V20.7594C21.1536 20.6782 21.1698 20.5978 21.2014 20.5228C21.2329 20.4478 21.2791 20.3796 21.3374 20.3222C21.3956 20.2648 21.4648 20.2192 21.541 20.1881C21.6171 20.157 21.6987 20.141 21.7811 20.141H25.2768C25.3592 20.141 25.4407 20.157 25.5169 20.1881C25.593 20.2192 25.6622 20.2648 25.7204 20.3222C25.7787 20.3796 25.8249 20.4478 25.8564 20.5228C25.888 20.5978 25.9042 20.6782 25.9042 20.7594V25.4413L25.6353 25.7063L24.8286 26.2363C24.8048 26.2363 24.782 26.2456 24.7652 26.2622C24.7484 26.2788 24.739 26.3012 24.739 26.3246C24.739 26.3481 24.7484 26.3706 24.7652 26.3871C24.782 26.4037 24.8048 26.413 24.8286 26.413H29.2207C29.3103 26.413 29.3103 26.3247 29.3103 26.2363L28.4139 25.7063L28.1451 25.4413V13.0741ZM139.381 4.06374H118.765C118.675 4.06374 118.675 4.2404 118.675 4.32874L119.661 5.21211C119.752 5.30627 119.822 5.41731 119.868 5.53868C119.914 5.66005 119.935 5.78928 119.93 5.91879L109.533 29.4164C109.533 29.4867 109.504 29.5542 109.454 29.6039C109.403 29.6536 109.335 29.6815 109.264 29.6815C109.192 29.6815 109.124 29.6536 109.074 29.6039C109.023 29.5542 108.995 29.4867 108.995 29.4164L99.3144 5.47711C99.2845 5.41338 99.2677 5.34445 99.265 5.27427C99.2624 5.2041 99.2739 5.13406 99.2989 5.06831C99.3239 5.00256 99.3619 4.94239 99.4108 4.89125C99.4596 4.84011 99.5182 4.79904 99.5833 4.77042L100.211 4.32874C100.226 4.30633 100.236 4.28078 100.239 4.25406C100.243 4.22734 100.24 4.20017 100.232 4.17459C100.223 4.14901 100.209 4.12571 100.19 4.10649C100.17 4.08728 100.147 4.07266 100.121 4.06374H93.3985C93.3089 4.06374 93.3089 4.2404 93.3985 4.32874L95.1016 5.56542C95.1912 5.56542 95.2809 5.6538 95.2809 5.83048L107.202 35.6C107.292 35.8651 107.65 35.8651 107.83 35.6L119.392 9.54059C119.482 9.18725 119.93 9.27561 119.93 9.62896V33.3033C119.935 33.4328 119.914 33.562 119.868 33.6834C119.822 33.8048 119.752 33.9158 119.661 34.01L118.675 34.9817C118.675 34.9817 118.675 35.1584 118.765 35.1584H139.381C139.476 35.1584 139.567 35.1212 139.634 35.0549C139.701 34.9886 139.739 34.8988 139.739 34.805V28.8864C139.73 28.861 139.715 28.8379 139.696 28.819C139.676 28.8001 139.653 28.7858 139.627 28.7773C139.601 28.7688 139.573 28.7662 139.546 28.7698C139.519 28.7734 139.493 28.7831 139.47 28.7981C138.691 30.4065 137.474 31.7701 135.955 32.7371C134.435 33.704 132.674 34.2364 130.866 34.275H124.591C124.472 34.275 124.358 34.2285 124.274 34.1456C124.19 34.0628 124.143 33.9504 124.143 33.8333V21.0244C124.143 20.5559 124.332 20.1065 124.668 19.7752C125.004 19.4438 125.46 19.2577 125.936 19.2577H127.728C129.018 19.2545 130.284 19.5983 131.389 20.2522C132.495 20.906 133.399 21.845 134.003 22.9678C134.092 23.0562 134.182 23.0562 134.182 22.8795V14.7525C134.182 14.6642 134.092 14.6642 134.003 14.7525C133.399 15.8753 132.495 16.8143 131.389 17.4682C130.284 18.122 129.018 18.4659 127.728 18.4627H125.936C125.46 18.4627 125.004 18.2765 124.668 17.9452C124.332 17.6139 124.143 17.1645 124.143 16.6959V5.38879C124.143 5.27165 124.19 5.15929 124.274 5.07645C124.358 4.99362 124.472 4.94711 124.591 4.94711H130.866C132.674 4.98567 134.435 5.51805 135.955 6.48503C137.474 7.45201 138.691 8.8156 139.47 10.424C139.493 10.439 139.519 10.4487 139.546 10.4523C139.573 10.4559 139.601 10.4533 139.627 10.4448C139.653 10.4363 139.676 10.422 139.696 10.4031C139.715 10.3842 139.73 10.3611 139.739 10.3356V4.41705C139.739 4.32334 139.701 4.23347 139.634 4.1672C139.567 4.10094 139.476 4.06374 139.381 4.06374ZM100.749 33.6567C100.659 33.6567 100.569 33.48 100.569 33.3916L88.648 3.62205C88.5583 3.35704 88.1998 3.35704 88.0205 3.62205L76.637 29.4164C76.5987 29.4684 76.5467 29.5091 76.4866 29.5341C76.4266 29.5592 76.3608 29.5676 76.2963 29.5585C76.2318 29.5494 76.171 29.5231 76.1205 29.4825C76.07 29.442 76.0316 29.3886 76.0096 29.3281V5.91879C76.0017 5.78042 76.0306 5.64243 76.0935 5.51846C76.1564 5.3945 76.251 5.28888 76.3681 5.21211L77.2644 4.32874C77.2797 4.30633 77.2895 4.28078 77.2932 4.25406C77.2968 4.22734 77.2942 4.20017 77.2856 4.17459C77.2769 4.14901 77.2624 4.12571 77.2432 4.10649C77.224 4.08728 77.2006 4.07266 77.1748 4.06374H70.5419C70.4523 4.06374 70.4523 4.2404 70.5419 4.32874L71.5279 5.30042C71.6159 5.37785 71.6855 5.47336 71.732 5.5802C71.7784 5.68703 71.8006 5.80262 71.7968 5.91879V18.1093C71.7968 18.203 71.759 18.2929 71.6917 18.3592C71.6245 18.4254 71.5333 18.4627 71.4382 18.4627H59.5169C59.4218 18.4627 59.3307 18.4254 59.2634 18.3592C59.1962 18.2929 59.1584 18.203 59.1584 18.1093V5.91879C59.1546 5.80262 59.1767 5.68703 59.2232 5.5802C59.2697 5.47336 59.3394 5.37785 59.4273 5.30042L60.5029 4.32874C60.5029 4.2404 60.5029 4.06374 60.4133 4.06374H53.7803C53.7545 4.07266 53.7311 4.08728 53.7119 4.10649C53.6928 4.12571 53.6783 4.14901 53.6696 4.17459C53.661 4.20017 53.6583 4.22734 53.662 4.25406C53.6657 4.28078 53.6755 4.30633 53.6907 4.32874L54.6767 5.21211C54.7671 5.30627 54.8375 5.41731 54.8836 5.53868C54.9298 5.66005 54.9509 5.78928 54.9456 5.91879V33.3033C54.9509 33.4328 54.9298 33.562 54.8836 33.6834C54.8375 33.8048 54.7671 33.9158 54.6767 34.01L53.6907 34.9817C53.6011 34.9817 53.6907 35.1584 53.7803 35.1584H60.4133C60.5029 35.1584 60.5029 34.9817 60.5029 34.9817L59.4273 34.01C59.3369 33.9158 59.2665 33.8048 59.2204 33.6834C59.1742 33.562 59.1531 33.4328 59.1584 33.3033V19.6994C59.1584 19.6056 59.1962 19.5158 59.2634 19.4495C59.3307 19.3832 59.4218 19.346 59.5169 19.346H71.4382C71.5333 19.346 71.6245 19.3832 71.6917 19.4495C71.759 19.5158 71.7968 19.6056 71.7968 19.6994V33.3033C71.8021 33.4328 71.781 33.562 71.7348 33.6834C71.6886 33.8048 71.6183 33.9158 71.5279 34.01L70.5419 34.9817C70.4523 34.9817 70.4523 35.1584 70.5419 35.1584H77.1748C77.2645 35.1584 77.3541 34.9817 77.2644 34.9817L76.3681 34.01C76.251 33.9332 76.1564 33.8276 76.0935 33.7036C76.0306 33.5797 76.0017 33.4417 76.0096 33.3033C76.0284 33.0877 76.0892 32.8777 76.1888 32.6849L82.015 19.5227C82.015 19.4344 82.1047 19.346 82.284 19.346H90.5303L90.7992 19.5227L96.5357 33.745C96.5764 33.8755 96.572 34.0156 96.5234 34.1434C96.4747 34.2713 96.3845 34.3797 96.2668 34.4517L95.6394 34.8934C95.5498 34.9817 95.6394 35.07 95.7291 35.07H102.452C102.541 35.07 102.541 34.9817 102.452 34.8934L100.749 33.6567ZM89.9029 18.4627H82.9114C82.8635 18.4524 82.8183 18.4326 82.7785 18.4045C82.7387 18.3764 82.7052 18.3405 82.68 18.2991C82.6548 18.2578 82.6385 18.2117 82.632 18.1639C82.6256 18.116 82.6291 18.0674 82.6425 18.021L86.3175 9.80565C86.3175 9.73536 86.3458 9.66793 86.3962 9.61823C86.4467 9.56853 86.5151 9.54059 86.5864 9.54059C86.6577 9.54059 86.7261 9.56853 86.7765 9.61823C86.8269 9.66793 86.8553 9.73536 86.8553 9.80565L90.1717 18.021C90.1851 18.0674 90.1886 18.116 90.1822 18.1639C90.1757 18.2117 90.1594 18.2578 90.1342 18.2991C90.109 18.3405 90.0755 18.3764 90.0357 18.4045C89.9959 18.4326 89.9507 18.4524 89.9029 18.4627ZM20.078 0.000196311C16.0931 0.017651 12.2027 1.19817 8.89799 3.39274C5.59326 5.58731 3.02225 8.69755 1.50954 12.3309C-0.00316399 15.9642 -0.389739 19.9578 0.398527 23.8075C1.18679 27.6572 3.11458 31.1905 5.93861 33.9614C8.76264 36.7322 12.3563 38.6164 16.266 39.3762C20.1757 40.136 24.2261 39.7373 27.906 38.2304C31.586 36.7235 34.7304 34.1759 36.9425 30.9092C39.1546 27.6426 40.3352 23.8034 40.3352 19.876C40.3353 17.2585 39.8107 14.6666 38.7915 12.2494C37.7724 9.8322 36.2789 7.63717 34.3967 5.79036C32.5144 3.94356 30.2806 2.4814 27.8234 1.48776C25.3662 0.494113 22.734 -0.0114374 20.078 0.000196311ZM20.078 38.6035C16.3197 38.6035 12.6458 37.5052 9.52085 35.4474C6.39592 33.3896 3.96033 30.4648 2.52208 27.0428C1.08383 23.6208 0.707507 19.8553 1.44072 16.2225C2.17393 12.5897 3.98375 9.25281 6.64128 6.63373C9.29881 4.01465 12.6847 2.23101 16.3708 1.50841C20.0569 0.785805 23.8777 1.15669 27.3499 2.57413C30.8222 3.99156 33.7899 6.39192 35.8779 9.47163C37.9659 12.5514 39.0804 16.1721 39.0804 19.876C39.0804 22.3354 38.5889 24.7706 37.6339 27.0428C36.679 29.3149 35.2793 31.3794 33.5147 33.1184C31.7502 34.8574 29.6554 36.2368 27.3499 37.178C25.0444 38.1191 22.5734 38.6035 20.078 38.6035ZM261.731 4.06374H239.86C239.813 4.06374 239.767 4.07283 239.723 4.09059C239.68 4.10834 239.64 4.13439 239.607 4.1672C239.574 4.20001 239.547 4.23896 239.529 4.28183C239.511 4.3247 239.502 4.37065 239.502 4.41705V10.6007C239.502 10.689 239.681 10.7773 239.681 10.6007C240.368 9.09507 241.439 7.79084 242.79 6.81537C244.141 5.83991 245.726 5.2266 247.39 5.03542H248.734V33.3916C248.711 33.6639 248.583 33.9171 248.376 34.0984L247.39 35.07C247.3 35.07 247.39 35.2467 247.479 35.2467H254.112C254.202 35.2467 254.202 35.07 254.112 35.07L253.126 34.0984C253.036 34.0042 252.965 33.8932 252.919 33.7718C252.873 33.6504 252.852 33.5211 252.857 33.3916V4.94711H254.202C255.855 5.13583 257.429 5.74923 258.766 6.72593C260.103 7.70262 261.157 9.00832 261.821 10.5123C261.91 10.689 262 10.6007 262 10.5123V4.32874C262 4.2404 261.91 4.06374 261.731 4.06374ZM236.813 34.01C236.722 33.9158 236.652 33.8048 236.606 33.6834C236.56 33.562 236.539 33.4328 236.544 33.3033V5.91879C236.539 5.78928 236.56 5.66005 236.606 5.53868C236.652 5.41731 236.722 5.30627 236.813 5.21211L237.799 4.32874C237.799 4.2404 237.799 4.06374 237.709 4.06374H231.076C231.05 4.07266 231.027 4.08728 231.008 4.10649C230.989 4.12571 230.974 4.14901 230.965 4.17459C230.957 4.20017 230.954 4.22734 230.958 4.25406C230.962 4.28078 230.971 4.30633 230.987 4.32874L231.973 5.21211C232.152 5.47712 232.331 5.65378 232.331 5.91879V14.0458C232.331 14.1395 232.293 14.2294 232.226 14.2957C232.159 14.3619 232.068 14.3991 231.973 14.3991H218.617C218.522 14.3991 218.431 14.3619 218.364 14.2957C218.296 14.2294 218.259 14.1395 218.259 14.0458V9.36396C218.253 9.23445 218.274 9.10516 218.321 8.9838C218.367 8.86243 218.437 8.75139 218.528 8.65722L219.603 7.68554C219.693 7.5972 219.603 7.50885 219.513 7.50885H212.881C212.791 7.50885 212.701 7.5972 212.791 7.68554L213.777 8.56891C213.867 8.66307 213.938 8.77411 213.984 8.89548C214.03 9.01685 214.051 9.14608 214.046 9.27559V28.7981C214.051 28.9276 214.03 29.0569 213.984 29.1782C213.938 29.2996 213.867 29.4106 213.777 29.5048L212.791 30.4765C212.701 30.4765 212.791 30.6532 212.881 30.6532H219.513C219.603 30.6532 219.693 30.4765 219.603 30.4765L218.528 29.5048C218.437 29.4106 218.367 29.2996 218.321 29.1782C218.274 29.0569 218.253 28.9276 218.259 28.7981V15.6359C218.259 15.5422 218.296 15.4523 218.364 15.386C218.431 15.3198 218.522 15.2825 218.617 15.2825H231.973C232.068 15.2825 232.159 15.3198 232.226 15.386C232.293 15.4523 232.331 15.5422 232.331 15.6359V33.3033C232.308 33.5756 232.18 33.8288 231.973 34.01L230.987 34.9817C230.897 34.9817 230.987 35.1584 231.076 35.1584H237.709C237.799 35.1584 237.799 34.9817 237.799 34.9817L236.813 34.01ZM167.526 4.06374H159.279C159.1 4.06374 159.1 4.2404 159.19 4.32874C160.322 4.90928 161.271 5.78421 161.935 6.85867C162.599 7.93313 162.951 9.16611 162.954 10.424V28.0031C162.954 28.1797 162.596 28.3564 162.506 28.0914L146.193 4.24037L145.924 4.06374H142.518C142.249 4.06374 142.07 4.41706 142.249 4.59374L145.117 8.83391C145.285 9.03289 145.38 9.2819 145.386 9.54059V28.7981C145.383 30.056 145.031 31.289 144.367 32.3634C143.703 33.4379 142.754 34.3128 141.622 34.8934C141.532 34.9817 141.532 35.1584 141.622 35.1584H149.868C150.047 35.1584 150.047 34.9817 149.958 34.8934C148.825 34.3128 147.876 33.4379 147.212 32.3634C146.549 31.289 146.196 30.056 146.193 28.7981V11.219C146.193 10.954 146.551 10.8657 146.641 11.0423L163.223 35.335C163.247 35.4053 163.298 35.4634 163.366 35.4966C163.433 35.5297 163.511 35.5352 163.582 35.5117C163.653 35.4883 163.712 35.4379 163.746 35.3717C163.779 35.3054 163.785 35.2286 163.761 35.1584V10.424C163.764 9.16611 164.117 7.93313 164.781 6.85867C165.444 5.78421 166.394 4.90928 167.526 4.32874C167.615 4.2404 167.615 4.06374 167.526 4.06374ZM230.09 19.081H220.768C220.679 19.081 220.589 19.1694 220.589 19.346V24.6463C220.589 24.8229 220.858 24.9113 220.858 24.7346C221.171 23.9058 221.561 23.1073 222.023 22.3495C223.637 19.7877 225.609 20.141 225.609 20.141V31.6249C224.406 32.7313 222.973 33.5654 221.409 34.0689C219.845 34.5724 218.189 34.7333 216.556 34.54C214.315 34.1867 208.488 32.4199 206.606 23.7629C205.978 20.6426 205.978 17.4311 206.606 14.3108C208.488 5.65378 214.315 3.88703 216.556 3.53368C222.471 2.82698 224.891 8.74558 225.429 10.3356C225.519 10.5123 225.698 10.6006 225.877 10.424L228.925 7.24385C228.963 7.21069 228.994 7.1699 229.015 7.12421C229.036 7.07852 229.046 7.02898 229.046 6.97885C229.046 6.92872 229.036 6.87913 229.015 6.83344C228.994 6.78774 228.963 6.74701 228.925 6.71385C227.882 5.80489 226.703 5.05998 225.429 4.50542C221.629 2.63623 217.285 2.13618 213.15 3.092C210.991 3.66984 208.957 4.62751 207.144 5.91879C206.462 6.38239 205.831 6.91533 205.262 7.50885C202.371 10.6725 200.771 14.7792 200.771 19.0368C200.771 23.2944 202.371 27.4012 205.262 30.5649C206.443 31.8619 207.875 32.9131 209.474 33.6567C212.051 34.9559 214.918 35.5939 217.81 35.5117C220.027 35.4249 222.225 35.0688 224.354 34.4517L225.609 34.0984L229.015 37.1902C229.104 37.1902 229.104 37.1901 229.104 37.1018V20.141C229.129 20.0089 229.191 19.8863 229.284 19.7877L230.18 19.2577C230.27 19.2577 230.27 19.081 230.09 19.081ZM197.732 5.21211L198.808 4.32874C198.823 4.30633 198.833 4.28078 198.837 4.25406C198.84 4.22734 198.838 4.20017 198.829 4.17459C198.82 4.14901 198.806 4.12571 198.787 4.10649C198.768 4.08728 198.744 4.07266 198.718 4.06374H192.086C192.06 4.07266 192.036 4.08728 192.017 4.10649C191.998 4.12571 191.983 4.14901 191.975 4.17459C191.966 4.20017 191.964 4.22734 191.967 4.25406C191.971 4.28078 191.981 4.30633 191.996 4.32874L192.982 5.21211C193.072 5.30627 193.143 5.41731 193.189 5.53868C193.235 5.66005 193.256 5.78928 193.251 5.91879V33.3033C193.256 33.4328 193.235 33.562 193.189 33.6834C193.143 33.8048 193.072 33.9158 192.982 34.01L191.996 34.9817C191.906 34.9817 191.996 35.1584 192.086 35.1584H198.718C198.808 35.1584 198.898 34.9817 198.808 34.9817L197.732 34.01C197.642 33.9158 197.572 33.8048 197.526 33.6834C197.479 33.562 197.458 33.4328 197.464 33.3033V5.91879C197.47 5.6601 197.565 5.41109 197.732 5.21211ZM189.665 28.7981C188.87 30.3942 187.649 31.747 186.133 32.7118C184.617 33.6765 182.864 34.2169 181.061 34.275H175.414C175.295 34.275 175.181 34.2285 175.097 34.1456C175.013 34.0628 174.965 33.9504 174.965 33.8333V5.91879C174.964 5.79367 174.997 5.67051 175.06 5.56187C175.123 5.45322 175.214 5.36298 175.324 5.30042L176.31 4.32874C176.325 4.30633 176.335 4.28078 176.339 4.25406C176.342 4.22734 176.34 4.20017 176.331 4.17459C176.322 4.14901 176.308 4.12571 176.289 4.10649C176.27 4.08728 176.246 4.07266 176.22 4.06374H169.587C169.498 4.06374 169.498 4.2404 169.498 4.32874L170.484 5.21211C170.574 5.30627 170.644 5.41731 170.691 5.53868C170.737 5.66005 170.758 5.78928 170.753 5.91879V33.3033C170.774 33.413 170.77 33.5263 170.738 33.6338C170.707 33.7412 170.651 33.8399 170.573 33.9217H170.484L169.587 34.805C169.498 34.8934 169.587 35.07 169.767 35.07H189.576C189.671 35.07 189.762 35.0328 189.829 34.9665C189.896 34.9003 189.934 34.8104 189.934 34.7167V28.7981C189.917 28.7793 189.897 28.7642 189.874 28.7539C189.85 28.7436 189.825 28.7383 189.8 28.7383C189.774 28.7383 189.749 28.7436 189.726 28.7539C189.703 28.7642 189.682 28.7793 189.665 28.7981Z"></path>
  </svg>