<?xml version="1.0" encoding="UTF-8"?>
<svg id="Layer_1" data-name="Layer 1" xmlns="http://www.w3.org/2000/svg" version="1.1" viewBox="0 0 250 100">
  <defs>
    <style>
      .cls-1, .cls-2 {
        fill: #0075ba;
        stroke-width: 0px;
      }

      .cls-3, .cls-2 {
        isolation: isolate;
      }
    </style>
  </defs>
  <path class="cls-2" d="M92.1,35.3c0,3-2.6,5.5-5.8,5.5s-5.8-2.5-5.8-5.5,2.6-5.5,5.8-5.5,5.8,2.5,5.8,5.5Z"/>
  <path class="cls-1" d="M80.2,35.3c0,3.1,2.7,5.7,6,5.7s6-2.5,6-5.7-2.7-5.7-6-5.7-6,2.5-6,5.7ZM80.6,35.3c0-2.9,2.6-5.3,5.7-5.3s5.7,2.4,5.7,5.3-2.6,5.3-5.7,5.3-5.7-2.4-5.7-5.3Z"/>
  <path class="cls-1" d="M88.1,10.8c.7,0,1.1.5.8,1.1l-14.6,36.3c-.2.6-1,1.1-1.8,1.1h-9.8c-.7,0-1.5-.5-1.8-1.1l-14.6-36.3c-.2-.6.1-1.1.8-1.1h8.6c.7,0,1.5.5,1.8,1.1l9.8,24.1c.2.6.7.6.9,0l9.3-24.1c.2-.6,1-1.1,1.8-1.1h8.7,0Z"/>
  <path class="cls-1" d="M79.4,10.6c-.8,0-1.6.6-1.9,1.3l-9.3,24.1c0,.2-.2.4-.3.4s-.2-.1-.3-.4l-9.8-24.1c-.3-.7-1.2-1.2-1.9-1.2h-8.6c-.4,0-.7.1-.9.4s-.2.6,0,1l14.6,36.3c.3.7,1.1,1.2,1.9,1.2h9.8c.8,0,1.7-.6,1.9-1.2l14.6-36.2c.1-.4.1-.7,0-1-.2-.3-.5-.4-.9-.4h-8.7ZM67.9,36.6c.2,0,.4,0,.6-.6l9.3-24.1c.2-.6.9-1,1.6-1h8.7c.3,0,.5,0,.6.3s.1.4,0,.6l-14.6,36.3c-.2.6-.9,1-1.6,1h-9.8c-.6,0-1.4-.5-1.6-1l-14.6-36.3c0-.2,0-.5,0-.6.1-.2.3-.3.6-.3h8.6c.6,0,1.4.5,1.6,1l9.8,24.1c.2.5.5.6.6.6h0Z"/>
  <path class="cls-1" d="M153.9,46.3c.7,0,1.2.5,1,1.2,0,0-1.5,6.3-4.1,9.2-3.4,3.7-8.3,5.6-14.6,5.6s-11.9-2.2-15.7-6.5c-3.2-3.7-4.8-8.3-4.8-13.8s1.8-10.3,5.5-14.2c3.8-4,8.9-6,15.3-6s10.5,1.8,14.1,5.4c2.6,2.6,4,5.7,4.2,9.1h-9.2c-.7,0-1.5-.5-1.7-1.2,0,0-.6-1.9-1.5-2.8-1.5-1.5-3.6-2.3-6.1-2.3s-6.1,1.4-7.7,4.1c-1.3,2.1-1.9,4.7-1.9,7.9s.7,6,2,8c1.7,2.6,4.3,4,7.6,4s5-1,6.5-3c.8-1.1,1.4-2.7,1.6-4.8h9.4Z"/>
  <path class="cls-1" d="M121.2,27.8c-3.7,3.9-5.5,8.7-5.5,14.3s1.6,10.1,4.8,13.8c3.7,4.4,9.1,6.6,15.8,6.6s11.2-1.9,14.7-5.6c2.7-2.9,4.1-9,4.2-9.3,0-.4,0-.7-.2-1-.2-.3-.6-.4-1-.4h-9.6v.2c-.3,2.1-.8,3.7-1.6,4.7-1.4,1.9-3.5,2.9-6.3,2.9s-5.8-1.3-7.4-3.9c-1.3-2-1.9-4.7-1.9-7.9s.7-5.7,1.9-7.8c1.6-2.6,4.2-4,7.6-4s4.6.8,6,2.2c.8.9,1.5,2.7,1.5,2.8.2.7,1.1,1.3,1.9,1.3h9.3v-.2c-.2-3.5-1.7-6.5-4.3-9.2-3.6-3.6-8.4-5.5-14.2-5.5s-11.7,2-15.4,6h0ZM120.7,55.7c-3.1-3.7-4.7-8.3-4.7-13.7s1.8-10.3,5.4-14.1c3.7-3.9,8.8-5.9,15.2-5.9s10.4,1.8,14,5.4c2.5,2.5,3.9,5.5,4.2,8.8h-9c-.6,0-1.3-.5-1.5-1,0,0-.6-2-1.6-2.9-1.5-1.5-3.6-2.3-6.3-2.3s-6.2,1.4-7.9,4.2c-1.3,2.1-2,4.8-2,8s.7,6.1,2,8.1c1.8,2.7,4.4,4,7.8,4s5.1-1,6.6-3c.8-1.1,1.4-2.7,1.7-4.7h9.3c.3,0,.5,0,.7.3.2.2.2.4.1.7,0,0-1.5,6.3-4.1,9.2-3.4,3.7-8.2,5.5-14.4,5.5s-11.9-2.2-15.6-6.5h0Z"/>
  <path class="cls-2" d="M202.3,10.4h-12.6c-.7,0-1.5.5-1.6,1.2l-6.9,23c-.2.7-.5.7-.7,0l-7.1-23c-.2-.6-.9-1.2-1.7-1.2h-12.8c-.7,0-1.3.6-1.3,1.2v20.8c1.4-.6,2.9-1,4.5-1s4,.6,5.6,1.6v-9.6c0-.7.1-.7.4,0l8.1,24.4c.2.6,1,1.2,1.7,1.2h5.6c.7,0,1.5-.5,1.7-1.2l8-25c.2-.6.4-.6.4,0v24.9c0,.7.5,1.2,1.2,1.2h7.6c.7,0,1.3-.5,1.3-1.2V11.6c0-.7-.6-1.2-1.3-1.2Z"/>
  <path class="cls-1" d="M189.8,10.3c-.8,0-1.6.6-1.8,1.3l-6.9,22.9c0,.3-.2.3-.2.4,0,0-.1,0-.2-.4l-7.1-22.9c-.2-.7-1-1.3-1.8-1.3h-12.8c-.8,0-1.5.6-1.5,1.4v21.1h.3c1.4-.7,2.9-1.1,4.4-1.1s3.9.5,5.5,1.6l.3.2s0-9.9,0-9.9h0s0,0,0,0l8.1,24.4c.2.7,1.1,1.3,1.9,1.3h5.6c.8,0,1.6-.6,1.9-1.3l8-25s0,0,0,0h0s0,24.9,0,25c0,.4.1.7.4,1,.3.3.6.4,1,.4h7.6c.8,0,1.5-.6,1.5-1.4V11.7c0-.8-.7-1.4-1.5-1.4h-12.5ZM180.9,35.2c.2,0,.4-.2.5-.6l6.9-22.9c.2-.6.9-1.1,1.5-1.1h12.5c.6,0,1.1.5,1.1,1.1v36.1c0,.6-.5,1-1.1,1h-7.5c-.3,0-.6-.1-.8-.3-.2-.2-.3-.5-.3-.7v-24.9c0-.4,0-.7-.2-.7s-.3.2-.5.6l-8,25c-.2.6-.9,1-1.5,1h-5.6c-.6,0-1.3-.5-1.5-1l-8.1-24.4c-.1-.4-.2-.6-.5-.6s-.3.3-.3.7c0,0,0,8.7,0,9.3-1.6-1-3.5-1.5-5.5-1.5s-2.9.3-4.3.9V11.6c0-.6.5-1.1,1.1-1.1h12.8c.6,0,1.3.5,1.5,1.1l7.1,22.9c.1.4.3.6.5.6h0Z"/>
  <path class="cls-2" d="M112.6,40.1h-9.1c-.7,0-1.3-.5-1.3-1.2V11.5c0-.7-.6-1.2-1.3-1.2h-8.1c-.7,0-1.3.6-1.3,1.2v15.6c3,1.7,5,4.7,5,8.2s-2,6.5-5,8.2v4c0,.7.6,1.2,1.3,1.2h19.8c.7,0,1.3-.5,1.3-1.2v-6.2c0-.7-.6-1.2-1.3-1.2h0Z"/>
  <path class="cls-1" d="M92.8,10.1c-.8,0-1.5.6-1.5,1.4v15.7h0c3,1.8,4.9,4.8,4.9,8.1s-1.9,6.4-4.9,8.1h0v4.2c0,.8.7,1.4,1.5,1.4h19.8c.8,0,1.5-.6,1.5-1.4v-6.2c0-.8-.7-1.4-1.5-1.4h-9.1c-.6,0-1.1-.5-1.1-1V11.5c0-.8-.7-1.4-1.5-1.4h-8.1,0ZM91.7,11.5c0-.6.5-1.1,1.1-1.1h8.1c.6,0,1.1.5,1.1,1.1v27.4c0,.8.7,1.4,1.5,1.4h9.1c.6,0,1.1.5,1.1,1v6.3c0,.6-.5,1-1.1,1h-19.8c-.6,0-1.1-.5-1.1-1v-4c3.1-1.8,5-5,5-8.3s-1.9-6.6-5-8.3v-15.5h0Z"/>
  <path class="cls-2" d="M168,41.1c0,3-2.6,5.5-5.9,5.5s-5.9-2.5-5.9-5.5,2.6-5.5,5.9-5.5,5.9,2.5,5.9,5.5Z"/>
  <path class="cls-1" d="M156.1,41.1c0,3.1,2.7,5.7,6,5.7s6-2.5,6-5.7-2.7-5.7-6-5.7-6,2.5-6,5.7ZM156.5,41.1c0-2.9,2.6-5.3,5.7-5.3s5.7,2.4,5.7,5.3-2.5,5.3-5.7,5.3-5.7-2.4-5.7-5.3Z"/>
  <g class="cls-3">
    <g class="cls-3">
      <path class="cls-1" d="M63.1,86.2c-.6.7-1.4,1.2-2.4,1.6-1,.4-2.2.6-3.4.6s-2.5-.3-3.5-.9c-1-.6-1.8-1.4-2.3-2.5-.5-1.1-.8-2.4-.8-3.9v-1c0-1.5.3-2.8.8-4,.5-1.1,1.3-2,2.2-2.6,1-.6,2.1-.9,3.4-.9s3.2.4,4.2,1.3c1,.9,1.6,2.1,1.8,3.8h-3.1c-.1-.9-.4-1.5-.9-1.9-.5-.4-1.1-.6-2-.6s-1.9.4-2.4,1.2c-.6.8-.8,2-.8,3.6v1c0,1.6.3,2.8.9,3.6.6.8,1.5,1.2,2.7,1.2s2-.3,2.5-.8v-2.6h-2.9v-2.3h6v6.1Z"/>
      <path class="cls-1" d="M70.6,88.3c-1.7,0-3-.5-4.1-1.5-1-1-1.6-2.4-1.6-4.1v-.3c0-1.1.2-2.2.7-3.1.4-.9,1.1-1.6,1.9-2.1.8-.5,1.7-.7,2.8-.7,1.5,0,2.8.5,3.7,1.5.9,1,1.3,2.4,1.3,4.2v1.2h-7.2c0,.7.4,1.3.9,1.8.5.4,1.1.7,1.9.7,1.2,0,2.1-.4,2.7-1.3l1.5,1.7c-.5.6-1.1,1.1-1.8,1.5-.8.4-1.6.5-2.6.5ZM70.3,79c-.6,0-1.1.2-1.5.6-.4.4-.6,1-.7,1.7h4.2v-.2c0-.7-.2-1.2-.5-1.6-.3-.4-.8-.6-1.5-.6Z"/>
      <path class="cls-1" d="M80.6,74v2.8h1.9v2.2h-1.9v5.7c0,.4,0,.7.2.9.2.2.5.3.9.3s.6,0,.9,0v2.3c-.6.2-1.2.3-1.8.3-2.1,0-3.2-1.1-3.2-3.2v-6.1h-1.7v-2.2h1.7v-2.8h3Z"/>
      <path class="cls-1" d="M87.9,74v2.8h1.9v2.2h-1.9v5.7c0,.4,0,.7.2.9.2.2.5.3.9.3s.6,0,.9,0v2.3c-.6.2-1.2.3-1.8.3-2.1,0-3.2-1.1-3.2-3.2v-6.1h-1.7v-2.2h1.7v-2.8h3Z"/>
      <path class="cls-1" d="M91.5,73.8c0-.5.2-.8.5-1.1.3-.3.7-.4,1.2-.4s.9.1,1.2.4.5.7.5,1.1-.2.8-.5,1.1-.7.4-1.2.4-.9-.1-1.2-.4-.5-.7-.5-1.1ZM94.7,88.1h-3v-11.3h3v11.3Z"/>
      <path class="cls-1" d="M100,76.8v1.3c.9-1,2-1.5,3.4-1.5s2.1.4,2.7,1.1c.6.7.9,1.8.9,3.2v7.3h-3v-7.2c0-.6-.1-1.1-.4-1.4-.3-.3-.7-.4-1.4-.4s-1.5.4-1.9,1.1v8h-3v-11.3h2.8Z"/>
      <path class="cls-1" d="M108.7,82.3c0-1.7.4-3.1,1.2-4.2s1.9-1.6,3.3-1.6,2.2.4,2.9,1.3v-1.1h2.9v11c0,1-.2,1.9-.7,2.6s-1.1,1.3-1.9,1.7c-.8.4-1.8.6-2.9.6s-1.6-.2-2.4-.5c-.8-.3-1.4-.8-1.8-1.3l1.3-1.8c.8.8,1.7,1.3,2.7,1.3s1.4-.2,1.9-.6c.4-.4.7-1,.7-1.8v-.6c-.7.8-1.6,1.2-2.8,1.2s-2.5-.5-3.3-1.6c-.8-1.1-1.3-2.5-1.3-4.2h0ZM111.8,82.6c0,1,.2,1.8.6,2.4.4.6,1,.9,1.7.9s1.6-.3,2-1v-4.8c-.4-.7-1.1-1-2-1s-1.3.3-1.7.9c-.4.6-.6,1.5-.6,2.7Z"/>
    </g>
    <g class="cls-3">
      <path class="cls-1" d="M130.3,88.1h-3.1v-15.2h3.1v15.2Z"/>
    </g>
    <g class="cls-3">
      <path class="cls-1" d="M144.4,75.4h-4.7v12.7h-3.1v-12.7h-4.6v-2.5h12.4v2.5Z"/>
    </g>
    <g class="cls-3">
      <path class="cls-1" d="M156.5,82.5h-2.5v5.6h-3.1v-15.2h5.7c1.8,0,3.2.4,4.2,1.2,1,.8,1.5,1.9,1.5,3.4s-.2,1.9-.7,2.6c-.5.7-1.1,1.2-2,1.7l3.3,6.2h0c0,.1-3.4.1-3.4.1l-2.9-5.6ZM154,80h2.5c.8,0,1.4-.2,1.8-.6s.6-1,.6-1.7-.2-1.3-.6-1.7c-.4-.4-1-.6-1.9-.6h-2.5v4.6Z"/>
      <path class="cls-1" d="M164.3,73.8c0-.5.2-.8.5-1.1s.7-.4,1.2-.4.9.1,1.2.4c.3.3.5.7.5,1.1s-.2.8-.5,1.1-.7.4-1.2.4-.9-.1-1.2-.4-.5-.7-.5-1.1ZM167.6,88.1h-3v-11.3h3v11.3Z"/>
      <path class="cls-1" d="M169.6,82.3c0-1.7.4-3.1,1.2-4.2s1.9-1.6,3.3-1.6,2.2.4,2.9,1.3v-1.1h2.9v11c0,1-.2,1.9-.7,2.6s-1.1,1.3-1.9,1.7-1.8.6-2.9.6-1.6-.2-2.4-.5c-.8-.3-1.4-.8-1.8-1.3l1.3-1.8c.8.8,1.7,1.3,2.7,1.3s1.4-.2,1.9-.6c.4-.4.7-1,.7-1.8v-.6c-.7.8-1.6,1.2-2.8,1.2s-2.5-.5-3.3-1.6c-.8-1.1-1.3-2.5-1.3-4.2h0ZM172.6,82.6c0,1,.2,1.8.6,2.4.4.6,1,.9,1.7.9s1.6-.3,2-1v-4.8c-.4-.7-1.1-1-2-1s-1.3.3-1.7.9c-.4.6-.6,1.5-.6,2.7Z"/>
      <path class="cls-1" d="M185.2,78c.8-1,1.8-1.4,3-1.4,2.5,0,3.7,1.4,3.7,4.3v7.3h-3v-7.2c0-.6-.1-1.1-.4-1.4-.3-.3-.7-.5-1.4-.5s-1.5.3-1.9,1v8.1h-3v-16.1h3v6Z"/>
      <path class="cls-1" d="M197.9,74v2.8h1.9v2.2h-1.9v5.7c0,.4,0,.7.2.9.2.2.5.3.9.3s.6,0,.9,0v2.3c-.6.2-1.2.3-1.8.3-2.1,0-3.2-1.1-3.2-3.2v-6.1h-1.7v-2.2h1.7v-2.8h3Z"/>
    </g>
  </g>
</svg>